<?xml version="1.0" encoding="UTF-8" standalone="no"?>
<svg width="44px" height="42px" viewBox="0 0 44 42" version="1.1" xmlns="http://www.w3.org/2000/svg" xmlns:xlink="http://www.w3.org/1999/xlink" xmlns:sketch="http://www.bohemiancoding.com/sketch/ns">
    <!-- Generator: Sketch 3.1.1 (8761) - http://www.bohemiancoding.com/sketch -->
    <title>界面 + Rectangle 1</title>
    <desc>Created with Sketch.</desc>
    <defs></defs>
    <g id="Page-1" stroke="none" stroke-width="1" fill="none" fill-rule="evenodd" sketch:type="MSPage">
        <g id="界面-+-Rectangle-1" sketch:type="MSLayerGroup" transform="translate(4.000000, 1.000000)">
            <g id="界面" transform="translate(0.000000, 1.000000)" fill="#9D9D9D" sketch:type="MSShapeGroup">
                <g id="Group">
                    <path d="M0,15.3 L0,19.8 C0,19.8 0,22 2.2,22 L6.7,22 L18,33.3 L18,1.8 L6.8,13.1 L2.3,13.1 C0,13.1 0,15.3 0,15.3 L0,15.3 Z" id="Shape"></path>
                    <path d="M22.5,-0.4 L22.5,4.3 C27.7,6.2 31.5,11.1 31.5,17 C31.5,22.9 27.7,27.9 22.5,29.7 L22.5,34.4 C30.3,32.4 36,25.4 36,17 C36,8.6 30.3,1.6 22.5,-0.4 L22.5,-0.4 Z" id="Shape"></path>
                    <path d="M22.5,9.2 L22.5,24.8 C25.2,23.2 27,20.3 27,17 C27,13.7 25.2,10.8 22.5,9.2 L22.5,9.2 Z" id="Shape"></path>
                </g>
            </g>
            <rect id="Rectangle-1" sketch:type="MSShapeGroup" x="0" y="0" width="36" height="36"></rect>
        </g>
    </g>
</svg>