<?xml version="1.0" encoding="UTF-8" standalone="no"?>
<svg width="37px" height="36px" viewBox="0 0 37 36" version="1.1" xmlns="http://www.w3.org/2000/svg" xmlns:xlink="http://www.w3.org/1999/xlink" xmlns:sketch="http://www.bohemiancoding.com/sketch/ns">
    <!-- Generator: Sketch 3.1.1 (8761) - http://www.bohemiancoding.com/sketch -->
    <title>界面</title>
    <desc>Created with Sketch.</desc>
    <defs></defs>
    <g id="Page-1" stroke="none" stroke-width="1" fill="none" fill-rule="evenodd" sketch:type="MSPage">
        <g id="界面-+-Rectangle-1" sketch:type="MSLayerGroup" fill="#B4B4B4">
            <g id="界面" sketch:type="MSShapeGroup">
                <path d="M33.7,15.8 C32.5,15.8 31.5,14.8 31.5,13.6 L31.5,4.6 L22.5,4.6 C21.3,4.6 20.3,3.6 20.3,2.4 C20.3,1.2 21.3,0.2 22.5,0.2 L36,0.2 L36,13.7 C36,14.7 35,15.8 33.7,15.8 L33.7,15.8 Z" id="Shape"></path>
                <path d="M13.5,36 L0,36 L0,22.5 C0,21.3 1,20.3 2.2,20.3 C3.4,20.3 4.4,21.3 4.4,22.5 L4.4,31.5 L13.4,31.5 C14.6,31.5 15.6,32.5 15.6,33.7 C15.6,34.9 14.7,36 13.5,36 L13.5,36 Z" id="Shape"></path>
                <path d="M2.3,36 C1.7,36 1.1,35.8 0.7,35.3 C-0.2,34.4 -0.2,33 0.7,32.1 L14.2,18.6 C15.1,17.7 16.5,17.7 17.4,18.6 C18.3,19.5 18.3,20.9 17.4,21.8 L3.8,35.3 C3.4,35.8 2.8,36 2.3,36 L2.3,36 Z" id="Shape"></path>
                <path d="M22.5,15.8 C21.9,15.8 21.3,15.6 20.9,15.1 C20,14.2 20,12.8 20.9,11.9 L32.2,0.7 C33.1,-0.2 34.5,-0.2 35.4,0.7 C36.3,1.6 36.3,3 35.4,3.9 L24.1,15.1 C23.7,15.5 23.1,15.8 22.5,15.8 L22.5,15.8 Z" id="Shape"></path>
            </g>
        </g>
    </g>
</svg>