<?xml version="1.0" encoding="UTF-8" standalone="no"?>
<svg width="37px" height="36px" viewBox="0 0 37 36" version="1.1" xmlns="http://www.w3.org/2000/svg" xmlns:xlink="http://www.w3.org/1999/xlink" xmlns:sketch="http://www.bohemiancoding.com/sketch/ns">
    <!-- Generator: Sketch 3.1.1 (8761) - http://www.bohemiancoding.com/sketch -->
    <title>界面</title>
    <desc>Created with Sketch.</desc>
    <defs></defs>
    <g id="Page-1" stroke="none" stroke-width="1" fill="none" fill-rule="evenodd" sketch:type="MSPage">
        <g id="界面-+-Rectangle-1" sketch:type="MSLayerGroup" transform="translate(1.000000, 0.000000)" fill="#B4B4B4">
            <g id="界面" sketch:type="MSShapeGroup">
                <path d="M22.5,0 C23.7,0 24.7,1 24.7,2.2 L24.7,11.2 L33.7,11.2 C34.9,11.2 35.9,12.2 35.9,13.4 C35.9,14.6 34.9,15.6 33.7,15.6 L20.3,15.6 L20.3,2.3 C20.3,1 21.3,0 22.5,0 L22.5,0 Z" id="Shape"></path>
                <path d="M4.5,18 L18,18 L18,31.5 C18,32.7 17,33.7 15.8,33.7 C14.6,33.7 13.6,32.7 13.6,31.5 L13.6,22.5 L4.6,22.5 C3.4,22.5 2.4,21.5 2.4,20.3 C2.3,19 3.3,18 4.5,18 L4.5,18 Z" id="Shape"></path>
                <path d="M15.8,18 C16.4,18 17,18.2 17.4,18.7 C18.3,19.6 18.3,21 17.4,21.9 L3.8,35.3 C2.9,36.2 1.5,36.2 0.6,35.3 C-0.3,34.4 -0.3,33 0.6,32.1 L14.1,18.6 C14.6,18.2 15.2,18 15.8,18 L15.8,18 Z" id="Shape"></path>
                <path d="M33.7,0 C34.3,0 34.9,0.2 35.3,0.7 C36.2,1.6 36.2,3 35.3,3.9 L24.1,15.1 C23.2,16 21.8,16 20.9,15.1 C20,14.2 20,12.8 20.9,11.9 L32.2,0.7 C32.6,0.2 33.2,0 33.7,0 L33.7,0 Z" id="Shape"></path>
            </g>
        </g>
    </g>
</svg>