<?xml version="1.0" encoding="UTF-8" standalone="no"?>
<svg width="36px" height="36px" viewBox="0 0 36 36" version="1.1" xmlns="http://www.w3.org/2000/svg" xmlns:xlink="http://www.w3.org/1999/xlink" xmlns:sketch="http://www.bohemiancoding.com/sketch/ns">
    <!-- Generator: Sketch 3.1.1 (8761) - http://www.bohemiancoding.com/sketch -->
    <title>Artboard 1</title>
    <desc>Created with Sketch.</desc>
    <defs></defs>
    <g id="Page-1" stroke="none" stroke-width="1" fill="none" fill-rule="evenodd" sketch:type="MSPage">
        <g id="Artboard-1" sketch:type="MSArtboardGroup" fill="#9D9D9D">
            <g id="界面-+-Rectangle-1" sketch:type="MSLayerGroup" transform="translate(0.000000, 5.000000)">
                <g id="界面" sketch:type="MSShapeGroup">
                    <g id="Group">
                        <g>
                            <path d="M24.6,1.6 C18.3,1.6 13.2,6.7 13.2,13 C13.2,19.3 18.3,24.4 24.6,24.4 C30.9,24.4 36,19.3 36,13 C36,6.7 30.9,1.6 24.6,1.6 L24.6,1.6 Z M24.6,20.6 C20.4,20.6 17,17.2 17,13 C17,11.6 17.4,10.3 18.1,9.2 L28.5,19.6 C27.3,20.2 26,20.6 24.6,20.6 L24.6,20.6 Z M31.2,16.8 L20.8,6.5 C21.9,5.8 23.2,5.4 24.6,5.4 C28.8,5.4 32.2,8.8 32.2,13 C32.2,14.4 31.8,15.7 31.2,16.8 L31.2,16.8 Z" id="Shape"></path>
                            <path d="M10.4,13 C10.4,8.8 12.2,5 15.1,2.4 L15.1,-0.3 L5.6,9.2 L1.8,9.2 C-0.1,9.2 0,11.1 0,11.1 L0,14.9 C0,14.9 0,16.8 1.9,16.8 L5.7,16.8 L15.2,26.3 L15.2,23.6 C12.3,21 10.4,17.2 10.4,13 L10.4,13 Z" id="Shape"></path>
                        </g>
                    </g>
                </g>
            </g>
        </g>
    </g>
</svg>