<?xml version="1.0" encoding="UTF-8" standalone="no"?>
<svg width="36px" height="36px" viewBox="0 0 36 36" version="1.1" xmlns="http://www.w3.org/2000/svg" xmlns:xlink="http://www.w3.org/1999/xlink" xmlns:sketch="http://www.bohemiancoding.com/sketch/ns">
    <!-- Generator: Sketch 3.1.1 (8761) - http://www.bohemiancoding.com/sketch -->
    <title>Artboard 1</title>
    <desc>Created with Sketch.</desc>
    <defs></defs>
    <g id="Page-1" stroke="none" stroke-width="1" fill="none" fill-rule="evenodd" sketch:type="MSPage">
        <g id="Artboard-1" sketch:type="MSArtboardGroup" fill="#B4B4B4">
            <g id="player-pause-05" sketch:type="MSLayerGroup" transform="translate(3.000000, 0.000000)">
                <g id="界面" sketch:type="MSShapeGroup">
                    <g id="Group">
                        <path d="M7.3,0 L2.1,0 C0.7,0 -0.4,1.2 -0.4,2.6 L-0.4,33.5 C-0.4,34.9 0.8,36.1 2.2,36.1 L7.3,36.1 C8.7,36.1 9.9,34.9 9.9,33.5 L9.9,2.6 C9.9,1.2 8.7,0 7.3,0 L7.3,0 Z" id="Shape"></path>
                        <path d="M27.9,0 L22.8,0 C21.4,0 20.2,1.2 20.2,2.6 L20.2,33.5 C20.2,34.9 21.4,36.1 22.8,36.1 L27.9,36.1 C29.3,36.1 30.5,34.9 30.5,33.5 L30.5,2.6 C30.4,1.2 29.3,0 27.9,0 L27.9,0 Z" id="Shape"></path>
                    </g>
                </g>
            </g>
        </g>
    </g>
</svg>